Coordinates
version=1
nRows=9
nColumns=36
inDegrees=yes

Units are S.I. units (second, meters, Newtons, ...)
If the header above contains a line with 'inDegrees', this indicates whether rotational values are in degrees (yes) or radians (no).

endheader
time	pelvis_tilt	pelvis_list	pelvis_rotation	pelvis_tx	pelvis_ty	pelvis_tz	hip_flexion_r	hip_adduction_r	hip_rotation_r	knee_angle_r	knee_angle_r_beta	ankle_angle_r	subtalar_angle_r	mtp_angle_r	hip_flexion_l	hip_adduction_l	hip_rotation_l	knee_angle_l	knee_angle_l_beta	ankle_angle_l	subtalar_angle_l	mtp_angle_l	lumbar_extension	lumbar_bending	lumbar_rotation	arm_flex_r	arm_add_r	arm_rot_r	elbow_flex_r	pro_sup_r	arm_flex_l	arm_add_l	arm_rot_l	elbow_flex_l	pro_sup_l
      0.00400000	    -10.59695425	      9.53544465	     -4.08366720	     -5.88981128	      0.97587343	      0.17410068	    -26.47462138	     -9.01768490	    -12.30213143	     11.64932779	      0.20331913	    -26.30769252	      8.40408410	    -34.84432634	     81.85869211	      3.65239628	    -11.16324722	    104.58628318	      1.82537499	     -2.52109753	    -28.03382742	      7.45852102	     -6.34712757	    -15.63477696	     10.70934586	     55.40196322	    -21.55790446	      7.54678007	    103.22852044	     90.00021046	    -77.99920200	    -21.41491618	     -8.82883502	     60.14277698	     90.00021046
      0.00800000	    -10.84501568	      9.81977817	     -3.12298043	     -5.85001383	      0.97521057	      0.17224700	    -28.79873050	     -9.03822156	    -14.62181351	      9.52055765	      0.16616508	    -31.08962043	      6.79334961	    -50.69203834	     82.64282953	      4.60779238	    -10.97509572	    100.86974280	      1.76050913	     -2.93235231	    -28.04920524	      3.79298415	     -5.76797705	    -15.90723743	     10.26115828	     57.30063091	    -22.12637964	      7.34791507	    105.16848362	     90.00021046	    -80.69101255	    -19.96489727	    -12.44433846	     61.11587504	     90.00021046
      0.01200000	    -10.17845955	     10.51150014	     -3.90980600	     -5.81000121	      0.97612280	      0.17072561	    -31.36833218	    -10.20040755	    -14.04504529	      8.86238676	      0.15467783	    -33.96501478	      5.12504340	    -13.10481806	     82.24114291	      4.47485158	    -11.15593832	     97.18246874	      1.69615405	     -2.30878070	    -28.11267501	     37.34628354	     -5.74012844	    -16.48861234	     11.50402594	     59.14293511	    -23.10843020	      7.38792430	    107.04965846	     90.00021046	    -82.32230978	    -18.51386743	    -15.50501036	     59.79914371	     90.00021046
      0.01600000	    -10.21327848	     10.57247178	     -2.98451281	     -5.77259806	      0.97619409	      0.16958488	    -32.74138703	    -10.01285968	    -15.69250616	      9.72131329	      0.16966892	    -33.69997710	      2.09420263	    -33.99018339	     82.29220737	      5.50607471	    -10.53761497	     92.36438332	      1.61206260	     -1.60653204	    -25.17188532	      0.31259531	     -5.80139057	    -16.56890264	     10.71500741	     61.03262685	    -23.27810452	      7.25434748	    108.70723758	     90.00021046	    -84.31081207	    -16.92109879	    -18.71834579	     62.10783806	     90.00021046
      0.02000000	     -9.57289137	     10.83924076	     -3.81145066	     -5.73430622	      0.97747399	      0.16949174	    -33.94882155	    -10.84905791	    -14.27779820	     11.97412492	      0.20898790	    -33.57421798	     -0.69874169	     -7.72585926	     81.22821672	      5.05812822	    -10.30872626	     88.00073390	      1.53590255	     -0.52742636	    -23.83553844	      3.02617398	     -6.20306933	    -16.78419287	     11.24426835	     62.75292312	    -23.35517890	      7.41399109	    110.35521973	     90.00021046	    -84.76637371	    -15.19399365	    -21.21320797	     60.98953329	     90.00021046
      0.02400000	    -10.25337501	     10.19512752	     -3.34524615	     -5.69886587	      0.97702017	      0.17074153	    -33.50666552	     -9.96644954	    -12.96086230	     15.18470607	      0.26502312	    -32.88961417	     -6.02873613	    -33.41412385	     81.14238165	      5.18016823	     -8.91139864	     83.17404758	      1.45166098	      0.17092950	    -22.82776324	      4.91326330	     -5.83152052	    -16.29186276	     10.75342277	     64.03023983	    -23.13087293	      7.07304461	    112.18000735	     90.00021046	    -85.81734151	    -13.66761392	    -23.48183630	     62.87877635	     90.00021046
      0.02800000	    -10.17331587	      9.68004228	     -3.50783774	     -5.66195205	      0.97778164	      0.17149371	    -33.47728025	     -9.59762749	    -11.19944112	     18.94401863	      0.33063550	    -31.33280563	     -9.38762683	    -29.19096766	     80.01223975	      4.71198092	     -8.11106783	     78.43960310	      1.36902934	      1.39481159	    -20.92140524	      2.50693508	     -5.98969963	    -15.87925568	     10.98139852	     64.63666254	    -23.47963730	      6.70177480	    114.28719502	     90.00021046	    -85.70794882	    -12.50887911	    -25.48069841	     61.66502314	     90.00021046
      0.03200000	     -9.91421424	     10.58718141	     -2.93057755	     -5.62477844	      0.97974313	      0.16972606	    -33.60843964	    -10.51416654	    -11.97906287	     23.48748194	      0.40993389	    -27.82098913	    -10.77605694	    -20.76141508	     78.28571064	      5.92891090	     -8.23386013	     72.61729666	      1.26741092	      1.88439134	    -19.92220874	      0.81587895	     -6.60639852	    -16.84413739	     10.03230647	     64.81657409	    -23.52287982	      6.33579915	    116.37179018	     90.00021046	    -85.11805452	    -11.52926180	    -26.97202129	     60.68439387	     90.00021046
      0.03600000	     -9.83453769	     11.18397842	     -2.23131992	     -5.58811259	      0.98153691	      0.16851514	    -33.47141207	    -11.00674359	    -12.48007359	     28.04189873	      0.48942346	    -25.71322060	    -12.09829702	    -15.75299852	     76.49160294	      7.19934056	     -7.84470398	     66.66890287	      1.16359186	      2.07610435	    -18.54473831	     -2.04903985	     -7.19776929	    -17.56474126	      8.90872823	     64.54873650	    -23.52124515	      5.93164541	    118.48029145	     90.00021046	    -84.32535305	    -10.70952360	    -28.19284584	     59.79382849	     90.00021046
